Coordinates
version=1
nRows=6
nColumns=34
inDegrees=yes

Units are S.I. units (second, meters, Newtons, ...)
If the header above contains a line with 'inDegrees', this indicates whether rotational values are in degrees (yes) or radians (no).

endheader
time	pelvis_tilt	pelvis_list	pelvis_rotation	pelvis_tx	pelvis_ty	pelvis_tz	hip_flexion_r	hip_adduction_r	hip_rotation_r	knee_angle_r	ankle_angle_r	subtalar_angle_r	mtp_angle_r	hip_flexion_l	hip_adduction_l	hip_rotation_l	knee_angle_l	ankle_angle_l	subtalar_angle_l	mtp_angle_l	lumbar_extension	lumbar_bending	lumbar_rotation	arm_flex_r	arm_add_r	arm_rot_r	elbow_flex_r	pro_sup_r	arm_flex_l	arm_add_l	arm_rot_l	elbow_flex_l	pro_sup_l
      7.10000000	    -20.20828877	      7.11055354	     -2.44175213	      0.39189352	      0.61058860	     -0.15257869	     92.98505350	    -18.49239742	      1.70190472	     92.80271498	      7.23166645	    -31.75777034	      0.00000000	     82.72935543	    -15.22959241	    -10.78229213	     93.96925568	     30.10154735	     11.70421320	      0.00000000	    -54.14184549	     -5.72856309	     -0.04463939	    106.21520074	      7.07314635	     80.87034757	    128.00358673	     90.90392255	    107.89699523	     10.75154882	     73.61025551	    132.05916938	     84.90189610
      7.11666670	    -21.06675036	      7.08069596	     -1.38378439	      0.40372213	      0.59649400	     -0.15031400	     94.91314314	    -19.62069786	      2.46123732	     95.86061769	      7.70742775	    -31.10721383	      0.00000000	     84.93725341	    -14.89150707	    -10.22496768	     96.51426321	     29.89860708	     12.30253535	      0.00000000	    -54.38307313	     -5.01957304	     -0.71468454	    106.02758474	      7.26486859	     82.07984408	    128.96289533	     90.59362476	    107.44928574	     10.90145098	     74.28809346	    133.03505907	     85.46517411
      7.13333330	    -21.69119838	      7.27765881	     -0.70397342	      0.41981016	      0.58603707	     -0.14627123	     96.26038301	    -20.76632956	      2.94025596	     98.88006968	      9.89044078	    -29.12869520	      0.00000000	     86.07694402	    -15.13736943	    -10.03920262	     99.03423751	     30.35913895	     12.57108647	      0.00000000	    -54.02933487	     -4.77987478	     -1.35857135	    103.80453480	      8.20924339	     84.25865447	    128.40551981	     90.01529686	    104.84431940	     10.90602246	     75.80032103	    134.22363009	     89.40759572
      7.15000000	    -22.92993212	      7.79696127	     -0.66617390	      0.42027229	      0.58109261	     -0.15467845	     97.86972563	    -21.53435945	      3.77397984	    100.17375061	     11.53910386	    -27.35751028	      0.00000000	     87.42278644	    -15.25390765	    -10.61194087	    100.67737194	     30.98526648	     12.93880860	      0.00000000	    -53.68651391	     -4.99993280	     -1.85501435	    102.64509909	      8.57110278	     86.62066942	    128.35306903	     90.17524971	    103.27363931	     11.54945761	     77.37362786	    134.67989491	     90.63859585
      7.16666670	    -23.49277749	      8.27687437	     -0.65832145	      0.42855804	      0.57970759	     -0.15938153	     99.10237076	    -22.68796851	      4.57791237	    101.69379218	     12.49693584	    -25.69176356	      0.00000000	     87.25783996	    -15.03162649	    -11.39999488	    101.48890200	     32.35218885	     13.46058551	      0.00000000	    -54.24454729	     -4.92969588	     -2.49579324	    101.55980740	      8.62237145	     88.84516979	    128.30441744	     90.49387214	    101.65113595	     12.03855088	     79.19572237	    134.58235786	     91.98308150
      7.18333330	    -24.22930218	      8.77249815	      0.06654351	      0.42903018	      0.57290061	     -0.15861419	    100.89064613	    -24.41427358	      5.30250331	    103.28460823	     13.84384897	    -24.08822003	      0.00000000	     87.73664020	    -14.33202232	    -12.19311516	    102.20650528	     33.12438249	     13.78420863	      0.00000000	    -54.60842700	     -4.32986622	     -3.13311706	    100.83484550	      8.67220727	     89.77874672	    127.82672205	     91.37670917	    100.78314848	     12.15367380	     80.05172782	    134.53675552	     97.32321686
